<?xml version="1.0" encoding="UTF-8" standalone="no" ?>
<!DOCTYPE svg PUBLIC "-//W3C//DTD SVG 1.1//EN" "http://www.w3.org/Graphics/SVG/1.1/DTD/svg11.dtd">
<svg xmlns="http://www.w3.org/2000/svg" xmlns:xlink="http://www.w3.org/1999/xlink" version="1.1" width="100" height="50" viewBox="0 0 100 50" xml:space="preserve">
<desc>Created with Fabric.js 4.6.0</desc>
<defs>
</defs>
<g transform="matrix(0.29 0 0 0.29 47.23 11.21)" id="PPk2VRqMgGKIjCkYawh6D"  >
<path style="stroke: rgb(0,0,0); stroke-width: 2; stroke-dasharray: none; stroke-linecap: butt; stroke-dashoffset: 0; stroke-linejoin: miter; stroke-miterlimit: 4; fill: rgb(255,255,255); fill-opacity: 0; fill-rule: nonzero; opacity: 1;" vector-effect="non-scaling-stroke"  transform=" translate(0, 0)" d="M -69.51004 0 L 69.51003 0" stroke-linecap="round" />
</g>
<g transform="matrix(0.29 0 0 0.29 73.36 20.75)" id="YomYFMBdHyHeWXABwT1Hi"  >
<path style="stroke: rgb(0,0,0); stroke-width: 2; stroke-dasharray: none; stroke-linecap: butt; stroke-dashoffset: 0; stroke-linejoin: miter; stroke-miterlimit: 4; fill: rgb(255,255,255); fill-opacity: 0; fill-rule: nonzero; opacity: 1;" vector-effect="non-scaling-stroke"  transform=" translate(0, 0)" d="M -30.49174 -46.12605 L -0.3555099999999989 -2.394210000000001 L 30.49174 46.126059999999995" stroke-linecap="round" />
</g>
<g transform="matrix(0.29 0 0 0.29 42.84 22.89)" id="NQ_TsTc1flrHh4-OWavdT"  >
<path style="stroke: rgb(0,0,0); stroke-width: 2; stroke-dasharray: none; stroke-linecap: butt; stroke-dashoffset: 0; stroke-linejoin: miter; stroke-miterlimit: 4; fill: rgb(255,255,255); fill-opacity: 0; fill-rule: nonzero; opacity: 1;" vector-effect="non-scaling-stroke"  transform=" translate(0, 0)" d="M 90.90909 -28.44982 L -5.903189999999995 38.25619999999999 L -53.62868999999999 -38.25620000000001 L -90.90908999999999 38.25619999999999" stroke-linecap="round" />
</g>
<g transform="matrix(0.28 0 0 0.28 28.88 34.13)" id="VuOwGG4dSGXKYsQl3HtDB"  >
<path style="stroke: rgb(0,0,0); stroke-width: 2; stroke-dasharray: none; stroke-linecap: butt; stroke-dashoffset: 0; stroke-linejoin: miter; stroke-miterlimit: 4; fill: rgb(255,255,255); fill-opacity: 0; fill-rule: nonzero; opacity: 1;" vector-effect="non-scaling-stroke"  transform=" translate(0, 0)" d="M -43.93359 0 L 43.93359 0" stroke-linecap="round" />
</g>
<g transform="matrix(0.22 0 0 0.22 17.22 34.13)" id="q_qdC1uMy4L8UxBzJkTmj"  >
<path style="stroke: rgb(0,0,0); stroke-width: 2; stroke-dasharray: none; stroke-linecap: butt; stroke-dashoffset: 0; stroke-linejoin: miter; stroke-miterlimit: 4; fill: none; fill-rule: nonzero; opacity: 1;" vector-effect="non-scaling-stroke"  transform=" translate(0, 0)" d="M 0 -50 C 27.6 -50 50 -27.6 50 0 C 50 27.6 27.6 50 0 50 C -27.6 50 -50 27.6 -50 0 C -50 -27.6 -27.6 -50 0 -50 z" stroke-linecap="round" />
</g>
<g transform="matrix(0.22 0 0 0.22 82.78 33.55)" id="ethYb41KNcShvRQsIQI4l"  >
<path style="stroke: rgb(0,0,0); stroke-width: 2; stroke-dasharray: none; stroke-linecap: butt; stroke-dashoffset: 0; stroke-linejoin: miter; stroke-miterlimit: 4; fill: none; fill-rule: nonzero; opacity: 1;" vector-effect="non-scaling-stroke"  transform=" translate(0, 0)" d="M 0 -50 C 27.6 -50 50 -27.6 50 0 C 50 27.6 27.6 50 0 50 C -27.6 50 -50 27.6 -50 0 C -50 -27.6 -27.6 -50 0 -50 z" stroke-linecap="round" />
</g>
<g transform="matrix(0.07 0 0 0.07 17.22 34.09)" id="wakeJs8PE7H8Ujp4SRCFF"  >
<path style="stroke: rgb(104,114,106); stroke-width: 0; stroke-dasharray: none; stroke-linecap: butt; stroke-dashoffset: 0; stroke-linejoin: miter; stroke-miterlimit: 4; fill: rgb(0,0,0); fill-rule: nonzero; opacity: 1;" vector-effect="non-scaling-stroke"  transform=" translate(0, 0)" d="M 0 -50 C 27.6 -50 50 -27.6 50 0 C 50 27.6 27.6 50 0 50 C -27.6 50 -50 27.6 -50 0 C -50 -27.6 -27.6 -50 0 -50 z" stroke-linecap="round" />
</g>
<g transform="matrix(0.07 0 0 0.07 82.78 33.55)" id="p5-XL_LRIO6WLoRq86vod"  >
<path style="stroke: rgb(104,114,106); stroke-width: 0; stroke-dasharray: none; stroke-linecap: butt; stroke-dashoffset: 0; stroke-linejoin: miter; stroke-miterlimit: 4; fill: rgb(0,0,0); fill-rule: nonzero; opacity: 1;" vector-effect="non-scaling-stroke"  transform=" translate(0, 0)" d="M 0 -50 C 27.6 -50 50 -27.6 50 0 C 50 27.6 27.6 50 0 50 C -27.6 50 -50 27.6 -50 0 C -50 -27.6 -27.6 -50 0 -50 z" stroke-linecap="round" />
</g>
<g transform="matrix(0.06 0 0 0.06 40.94 33.55)" id="j_2bu29NhLPs_FL3nYXsY"  >
<path style="stroke: rgb(104,114,106); stroke-width: 0; stroke-dasharray: none; stroke-linecap: butt; stroke-dashoffset: 0; stroke-linejoin: miter; stroke-miterlimit: 4; fill: rgb(0,0,0); fill-rule: nonzero; opacity: 1;" vector-effect="non-scaling-stroke"  transform=" translate(0, 0)" d="M 0 -50 C 27.6 -50 50 -27.6 50 0 C 50 27.6 27.6 50 0 50 C -27.6 50 -50 27.6 -50 0 C -50 -27.6 -27.6 -50 0 -50 z" stroke-linecap="round" />
</g>
<g transform="matrix(0.29 0 0 0.29 28.01 12.87)" id="kd9GzcgN4NrlBOgbsjBGK"  >
<path style="stroke: rgb(0,0,0); stroke-width: 2; stroke-dasharray: none; stroke-linecap: butt; stroke-dashoffset: 0; stroke-linejoin: miter; stroke-miterlimit: 4; fill: rgb(255,255,255); fill-opacity: 0; fill-rule: nonzero; opacity: 1;" vector-effect="non-scaling-stroke"  transform=" translate(0, 0)" d="M -12.69185 -21.05874 L 12.69186 21.058729999999997" stroke-linecap="round" />
</g>
<g transform="matrix(0.29 0 0 0.29 26.51 6.18)" id="jR5BkV3eTxX6uSfMiakfa"  >
<path style="stroke: rgb(0,0,0); stroke-width: 2; stroke-dasharray: none; stroke-linecap: butt; stroke-dashoffset: 0; stroke-linejoin: miter; stroke-miterlimit: 4; fill: rgb(255,255,255); fill-opacity: 0; fill-rule: nonzero; opacity: 1;" vector-effect="non-scaling-stroke"  transform=" translate(0, 0)" d="M -19.85584 0 L 19.85584 0" stroke-linecap="round" />
</g>
<g transform="matrix(0.29 0 0 0.29 68.72 6.9)" id="D6A6s3eKCOto6fK_kzwij"  >
<path style="stroke: rgb(0,0,0); stroke-width: 2; stroke-dasharray: none; stroke-linecap: butt; stroke-dashoffset: 0; stroke-linejoin: miter; stroke-miterlimit: 4; fill: rgb(255,255,255); fill-opacity: 0; fill-rule: nonzero; opacity: 1;" vector-effect="non-scaling-stroke"  transform=" translate(0, 0)" d="M -10.66461 6.96881 C -11.96383 5.32184 -14.46042 1.6657100000000007 -16.24161 -1.0065999999999997 L -16.24161 -1.0065999999999997 C -17.026030000000002 -2.1834599999999997 -17.09907 -3.6965199999999996 -16.43165 -4.94346 C -15.764240000000001 -6.1904 -14.464710000000002 -6.9688 -13.05039 -6.9688 L -12.90276 -6.9688 L 11.59788 -6.9688 L 11.59788 -6.9688 C 13.36967 -6.9688 15.0237 -6.0814 16.00349 -4.605169999999999 C 16.98327 -3.1289299999999995 17.158559999999998 -1.2600899999999995 16.47039 0.37259000000000064 L 14.0323 6.156930000000001" stroke-linecap="round" />
</g>
</svg>